# xmcd CD database file
#
# Track frame offsets:
#	150
#	12788
#	27095
#	40380
#	53555
#	66559
#	78907
#	92326
#	106646
#	120820
#	135451
#	147730
#	160525
#	173951
#	186997
#	200567
#	213288
#	226263
#	238692
#	251083
#	264563
#	278597
#
# Disc length: 3905 seconds
#
# Revision: 0
# Processed by: cddbd v1.5.2PL0 Copyright (c) Steve Scherf et al.
# Submitted via: CDex 1.51
#
DISCID=240f3f16
DTITLE=Felix Mendelssohn - Dreams Of Hawaii
DYEAR=1999
DGENRE=New Age
TTITLE0=Sing Me A Song Of The Islands
TTITLE1=Moon Of Manakoora
TTITLE2=My Isle Of Golden Dreams
TTITLE3=The Hula Blues
TTITLE4=Moon Over Miami
TTITLE5=Hawaii Sang Me To Sleep
TTITLE6=Song Of The Islands
TTITLE7=My Little Grass Shack In Kealakekua
TTITLE8=It Happened In Kaloha
TTITLE9=To You, Sweetheart, Aloha
TTITLE10=Yaaka Hula Hickey Dula
TTITLE11=Goodbye Blues
TTITLE12=Sweet Gardenia Lei
TTITLE13=Hawaiian War Chant
TTITLE14=Medley: Down On Ami Ami Oni Oni Isle, Little Brown Gal, On The Beach At Waikiki
TTITLE15=Goodbye, Hawaii
TTITLE16=Medley: Forget Me Not, My Honolulu Hula Girl, Weave A Lei
TTITLE17=Maui Waltz
TTITLE18=Hilo March
TTITLE19=Kalua Lullaby
TTITLE20=Mood Indigo
TTITLE21=Aloha Oe
EXTD=YEAR: 1999
EXTT0=
EXTT1=
EXTT2=
EXTT3=
EXTT4=
EXTT5=
EXTT6=
EXTT7=
EXTT8=
EXTT9=
EXTT10=
EXTT11=
EXTT12=
EXTT13=
EXTT14=
EXTT15=
EXTT16=
EXTT17=
EXTT18=
EXTT19=
EXTT20=
EXTT21=
PLAYORDER=
